<?xml version="1.0" encoding="UTF-8" standalone="no"?><!-- Generator: Gravit.io --><svg xmlns="http://www.w3.org/2000/svg" xmlns:xlink="http://www.w3.org/1999/xlink" style="isolation:isolate" viewBox="0 0 512 512" width="512pt" height="512pt"><defs><clipPath id="_clipPath_h53vsaZwhI8YsfAJz1qPf0EQxvSjR9xa"><rect width="512" height="512"/></clipPath></defs><g clip-path="url(#_clipPath_h53vsaZwhI8YsfAJz1qPf0EQxvSjR9xa)"><path d=" M 486.954 195.085 L 316.202 24.504 C 283.153 -8.511 227.383 -7.823 195.023 24.504 L 180.036 41.249 L 243.381 104.533 C 258.107 99.565 274.986 102.896 286.719 114.62 C 298.513 126.417 301.823 143.424 296.726 158.185 L 357.78 219.179 C 372.55 214.094 389.592 217.379 401.387 229.183 C 417.876 245.652 417.876 272.338 401.387 288.811 C 384.895 305.289 358.183 305.289 341.682 288.811 C 329.283 276.414 326.217 258.214 332.497 242.953 L 275.558 186.069 L 275.553 335.758 C 279.573 337.746 283.367 340.4 286.717 343.732 C 303.201 360.199 303.201 386.88 286.717 403.374 C 270.227 419.84 243.504 419.84 227.032 403.374 C 210.545 386.881 210.545 360.2 227.032 343.732 C 231.106 339.669 235.821 336.593 240.851 334.532 L 240.851 183.451 C 235.818 181.399 231.109 178.346 227.029 174.25 C 214.54 161.784 211.533 143.473 217.937 128.152 L 155.492 65.757 L 24.27 195.085 C -8.09 227.413 -8.09 283.814 24.27 316.142 L 195.023 486.722 C 228.76 520.426 282.465 520.426 316.202 486.722 L 486.954 316.142 C 520.003 283.126 520.692 228.788 486.954 195.085" fill="rgb(0,0,0)"/></g></svg>